<svg width="20" height="20" viewBox="0 0 20 20" fill="none" xmlns="http://www.w3.org/2000/svg">
    <path opacity=".3" d="M4.167 6.667h11.667V5H4.167v1.667z" fill="#7E869F"/>
    <path d="M5.833 9.167H7.5v1.667H5.833V9.167zm10-5.833H15V1.667h-1.667v1.667H6.667V1.667H5v1.667h-.833A1.66 1.66 0 0 0 2.508 5L2.5 16.667c0 .917.742 1.667 1.667 1.667h11.666c.917 0 1.667-.75 1.667-1.667V5c0-.916-.75-1.666-1.667-1.666zm0 13.333H4.167V8.334h11.666v8.333zm0-10H4.167V5h11.666v1.667zm-3.333 2.5h1.667v1.667H12.5V9.167zm-3.333 0h1.666v1.667H9.167V9.167z" fill="#7E869F"/>
</svg>
