<svg width="18" height="18" viewBox="0 0 18 18" fill="none" xmlns="http://www.w3.org/2000/svg">
    <g clip-path="url(#dd6zwazi5a)">
        <path d="M13.57 2c.22 0 .43.1.59.27l.16.17.16.17c.2.21.22.45.22.56 0 .13-.04.31-.2.45l-9.18 8.5-1.63.14.27-1.61 9.19-8.49c.14-.13.31-.16.43-.16m-.01-2c-.64 0-1.28.23-1.78.69L2.1 9.65l-.8 4.83 4.88-.42 9.68-8.96c1.08-1 1.12-2.72.09-3.84l-.16-.17-.16-.17C15.07.31 14.32 0 13.57 0zM17 16H1c-.55 0-1 .45-1 1s.45 1 1 1h16c.55 0 1-.45 1-1s-.45-1-1-1z" fill="#0055D5"/>
        <path d="m10.59 2.77 2.99 3.24" stroke="#0055D5" stroke-width="2" stroke-miterlimit="10"/>
    </g>
    <defs>
        <clipPath id="dd6zwazi5a">
            <path fill="#fff" d="M0 0h18v18H0z"/>
        </clipPath>
    </defs>
</svg>
