<svg width="28" height="28" viewBox="0 0 28 28" fill="none" xmlns="http://www.w3.org/2000/svg">
    <g clip-path="url(#blr8pp8fha)" stroke="#97A1D1" stroke-width="1.3">
        <path d="M14 26.599c6.7 0 12.133-5.433 12.133-12.134 0-6.7-5.432-12.133-12.133-12.133-6.702 0-12.134 5.432-12.134 12.133C1.866 21.166 7.298 26.6 14 26.6z" fill="#D0D2E0" stroke-miterlimit="10"/>
        <path d="M14 24.268c5.413 0 9.8-4.388 9.8-9.8 0-5.412-4.387-9.8-9.8-9.8-5.412 0-9.8 4.388-9.8 9.8 0 5.412 4.388 9.8 9.8 9.8z" fill="#fff" stroke-miterlimit="10"/>
        <path d="M14 15.402a.933.933 0 1 0 0-1.867.933.933 0 0 0 0 1.867z" stroke-miterlimit="10"/>
        <path d="M14 7.465v5.6" stroke-linecap="round" stroke-linejoin="round"/>
        <path d="M9.09 3.379A3.73 3.73 0 0 0 5.6.934a3.732 3.732 0 0 0-3.734 3.733c0 1.4.784 2.613 1.932 3.248A12.14 12.14 0 0 1 9.09 3.379zM24.201 7.915a3.713 3.713 0 0 0 1.932-3.248A3.732 3.732 0 0 0 22.4.934a3.716 3.716 0 0 0-3.49 2.445A12.262 12.262 0 0 1 24.2 7.915z" fill="#D0D2E0" stroke-miterlimit="10"/>
        <path d="m6.534 24.266-1.867 2.8h1.867l2.23-1.671c-.662-.317-1.297-.7-1.894-1.13h-.336zM21.131 24.266c-.597.429-1.223.812-1.895 1.129l2.231 1.67h1.867l-1.867-2.8h-.336z" stroke-linejoin="round"/>
        <path d="M20.534 14.465h-5.6" stroke-linecap="round" stroke-linejoin="round"/>
    </g>
    <defs>
        <clipPath id="blr8pp8fha">
            <path fill="#fff" d="M0 0h28v28H0z"/>
        </clipPath>
    </defs>
</svg>
